<?xml version="1.0" encoding="UTF-8"?>
<svg width="65px" height="65px" viewBox="0 0 65 65" version="1.1" xmlns="http://www.w3.org/2000/svg" xmlns:xlink="http://www.w3.org/1999/xlink">
    <!-- Generator: Sketch 43.1 (39012) - http://www.bohemiancoding.com/sketch -->
    <title>Artboard Copy 2</title>
    <desc>Created with Sketch.</desc>
    <defs></defs>
    <g id="Page-1" stroke="none" stroke-width="1" fill="none" fill-rule="evenodd">
        <g id="Artboard-Copy-2" fill-rule="nonzero" fill="#000000">
            <g id="fire" transform="translate(10.000000, 2.000000)">
                <path d="M43.5492981,30.9201734 L43.5128584,30.7745455 C38.1491374,13.9552431 22.1671628,2.01441015 21.4875222,1.51683721 L19.4246131,0 L19.5581818,2.54829175 C19.5581818,2.65761099 19.9342452,12.5355349 10.3596364,20.7508626 C-0.0401099366,29.6822706 0.020448203,37.0483425 0.0448287526,41.0044144 L0.0571501057,41.5504863 C0.0571501057,52.3384863 7.97414376,60.4046469 19.3008753,61.7344355 C18.6842833,61.6375687 18.0544524,61.5118647 17.4223932,61.3186554 C13.7696364,60.1900719 11.6339789,57.6295899 11.2213446,53.9403932 L11.1243467,53.2123848 C10.7966512,50.3606469 10.3719577,46.8292685 16.609315,40.1306469 C18.9392304,37.6308541 20.9658309,34.9368034 22.6404863,32.1335645 L23.477814,30.7260465 L24.5820169,31.9394376 C27.8828288,35.5434334 30.406871,39.184 32.1057759,42.7274376 C33.6711121,45.8583721 33.7683721,50.8095899 33.6468626,51.8652939 C33.0522918,57.2532643 29.1569091,61.2700254 23.9388161,61.8524059 C23.5986681,61.8912051 23.0895603,61.9288245 22.4662833,61.9427188 C22.521074,61.9431121 22.5732431,61.9494038 22.628296,61.9494038 C34.9575137,61.9494038 44.604871,52.0350402 44.604871,39.3781268 C44.6050021,36.3445835 43.5856068,31.1385497 43.5492981,30.9201734 Z" id="Shape"></path>
            </g>
        </g>
    </g>
</svg>