<?xml version="1.0" encoding="UTF-8"?>
<svg width="65px" height="65px" viewBox="0 0 65 65" version="1.1" xmlns="http://www.w3.org/2000/svg" xmlns:xlink="http://www.w3.org/1999/xlink">
    <!-- Generator: Sketch 43.1 (39012) - http://www.bohemiancoding.com/sketch -->
    <title>Artboard Copy 4</title>
    <desc>Created with Sketch.</desc>
    <defs></defs>
    <g id="Page-1" stroke="none" stroke-width="1" fill="none" fill-rule="evenodd">
        <g id="Artboard-Copy-4" fill-rule="nonzero" fill="#000000">
            <g id="distance" transform="translate(2.000000, 2.000000)">
                <path d="M51.666707,0 C45.9690039,0 41.3334141,4.63558984 41.3334141,10.333293 C41.3334141,15.2756133 48.655832,25.2785625 50.3714883,27.5552461 C50.3710039,28.2906484 50.3714883,29.0127305 50.3536875,29.6754766 C50.3347969,30.3881133 50.8973984,30.9823203 51.6112461,31.0012109 L51.6466055,31.0012109 C52.3428945,31.0012109 52.9180898,30.4449062 52.9369805,29.7436523 C52.9547812,29.0635898 52.9542969,28.3212852 52.9547812,27.5649336 C54.6590547,25.3038711 62,15.2814258 62,10.333293 C62,4.63558984 57.3644102,0 51.666707,0 Z M51.666707,12.916707 C50.2426445,12.916707 49.0834141,11.7574766 49.0834141,10.3334141 C49.0834141,8.90935156 50.2426445,7.75012109 51.666707,7.75012109 C53.0907695,7.75012109 54.25,8.90923047 54.25,10.333293 C54.25,11.7574766 53.0907695,12.916707 51.666707,12.916707 Z" id="Shape"></path>
                <path d="M39.5371094,37.2274883 C37.405375,38.4372148 36.220957,40.5373438 35.5144961,42.0106914 C35.2054648,42.6540625 35.4765937,43.4260352 36.1199648,43.7337344 C36.3003945,43.8208008 36.490875,43.861125 36.6774805,43.861125 C37.1593125,43.861125 37.621043,43.591207 37.8430078,43.1282656 C38.7398281,41.2576094 39.6556602,40.1311953 40.8135586,39.4726875 C41.4329531,39.1207891 41.6511641,38.3323477 41.2979336,37.7117422 C40.9473672,37.0912578 40.1614688,36.8730469 39.5371094,37.2274883 Z" id="Shape"></path>
                <path d="M27.7821758,55.9793398 C26.4879258,57.0048828 25.0172422,57.7768555 23.2840273,58.340668 C22.605418,58.5614219 22.2345078,59.2905273 22.4552617,59.9691367 C22.6331484,60.5140586 23.138957,60.8609922 23.6838789,60.8609922 C23.8163555,60.8609922 23.9512539,60.8407695 24.0837305,60.7979023 C26.0855313,60.1470234 27.8691211,59.2073359 29.386668,58.0051172 C29.9455156,57.5610664 30.0400898,56.7487695 29.5973711,56.1899219 C29.1507773,55.6325273 28.3396914,55.5328672 27.7821758,55.9793398 Z" id="Shape"></path>
                <path d="M35.0654805,46.5530391 C34.3969219,46.2931719 33.6526797,46.6249687 33.3941445,47.2909844 C32.8151953,48.7869766 32.0911758,50.5314531 31.1147969,52.1296484 C30.7426758,52.7388711 30.9356992,53.5336094 31.5437109,53.9057305 C31.7544141,54.0344531 31.9864297,54.095 32.2160234,54.095 C32.6512344,54.095 33.0762734,53.875457 33.319793,53.4769375 C34.4021289,51.7033984 35.1828203,49.8264453 35.8034258,48.2244961 C36.06075,47.5595703 35.7302852,46.8115742 35.0654805,46.5530391 Z" id="Shape"></path>
                <path d="M51.1872969,34.0298867 C50.6007188,33.6325781 49.7947188,33.7851562 49.3935352,34.3754883 C48.9684961,35.0037227 48.0980742,35.8677266 45.4654961,36.1036172 C44.7552813,36.167918 44.230582,36.7948203 44.2948828,37.5062461 C44.3554297,38.1773477 44.9192422,38.6818242 45.580293,38.6818242 C45.6194063,38.6818242 45.6585195,38.6806133 45.6976328,38.6767383 C48.4941719,38.4257109 50.4026094,37.4923203 51.5328984,35.8234063 C51.9328711,35.2331953 51.7776289,34.4297383 51.1872969,34.0298867 Z" id="Shape"></path>
                <path d="M18.5606445,59.433418 C22.6362969,55.0871211 31,45.088168 31,36.166707 C31,27.4756875 24.1910195,20.666707 15.5,20.666707 C6.80898047,20.666707 0,27.4756875 0,36.166707 C0,47.6239922 13.8129219,60.8875117 14.5848945,61.6194023 C14.5848945,61.6194023 14.588043,61.6225508 14.5894961,61.6240039 C14.5937344,61.628 14.6099609,61.6437422 14.6133516,61.6468906 C14.6667539,61.6976289 14.7333555,61.7211211 14.7925703,61.7608398 C14.865832,61.8102461 14.9320703,61.8684922 15.0150195,61.9022773 C15.170625,61.9654883 15.3345859,62 15.5,62 C16.4410195,62 17.3352969,61.9671836 18.1829531,61.9028828 C18.8943789,61.8486328 19.427918,61.2292383 19.373668,60.5178125 C19.334918,60.0087344 19.0054219,59.611668 18.5606445,59.433418 Z M15.5,43.916707 C11.2263594,43.916707 7.75,40.4403477 7.75,36.166707 C7.75,31.8930664 11.2263594,28.416707 15.5,28.416707 C19.7736406,28.416707 23.25,31.8930664 23.25,36.166707 C23.25,40.4402266 19.7736406,43.916707 15.5,43.916707 Z" id="Shape"></path>
            </g>
        </g>
    </g>
</svg>