<?xml version="1.0" encoding="UTF-8"?>
<svg width="65px" height="65px" viewBox="0 0 65 65" version="1.1" xmlns="http://www.w3.org/2000/svg" xmlns:xlink="http://www.w3.org/1999/xlink">
    <!-- Generator: Sketch 43.1 (39012) - http://www.bohemiancoding.com/sketch -->
    <title>Artboard Copy</title>
    <desc>Created with Sketch.</desc>
    <defs></defs>
    <g id="Page-1" stroke="none" stroke-width="1" fill="none" fill-rule="evenodd">
        <g id="Artboard-Copy" fill-rule="nonzero" fill="#333333">
            <g id="footsteps-silhouette-variant" transform="translate(10.000000, 2.000000)">
                <path d="M27.3705969,46.4652752 C30.7115078,47.6093915 33.6615543,48.3381318 37.9001434,49.6406124 C36.2718023,70.2154806 16.815938,62.0445775 27.3705969,46.4652752 Z M44.7416512,27.5646473 C44.5222481,21.386876 43.434124,13.2830194 34.7667403,14.5528178 C30.7036977,15.613186 27.701624,20.0753837 26.2896822,27.7740775 C25.5142016,32.0070194 25.9651434,37.9485659 26.8798837,41.5102016 C27.7150814,44.0201202 27.4310349,43.8658411 28.3287132,44.3424961 C31.8031163,45.125186 35.2426744,45.991624 38.745314,46.875124 C42.3035853,44.3623217 45.2259961,31.0218682 44.7416512,27.5646473 Z M17.9934574,27.0905155 C18.9074767,23.5283992 19.3584186,17.5868527 18.5832984,13.3543915 C17.172438,5.65533721 14.1700039,1.1924186 10.1062403,0.132771318 C1.43885659,-1.13702713 0.350732558,6.9667093 0.131329457,13.1448411 C-0.353015504,16.6014612 2.56975581,29.9427558 6.1283876,32.4550775 C9.63078682,31.5715775 13.0698643,30.7058605 16.5453488,29.9224496 C17.4419457,29.4462752 17.1578992,29.6004341 17.9934574,27.0905155 Z M6.97247674,35.2212868 C8.60021705,55.7959147 28.0560814,47.6250116 17.5016628,32.0459496 C14.1607519,33.190186 11.2109457,33.9188062 6.97247674,35.2212868 Z" id="Shape"></path>
            </g>
        </g>
    </g>
</svg>