<?xml version="1.0" encoding="UTF-8"?>
<svg width="65px" height="65px" viewBox="0 0 65 65" version="1.1" xmlns="http://www.w3.org/2000/svg" xmlns:xlink="http://www.w3.org/1999/xlink">
    <!-- Generator: Sketch 43.1 (39012) - http://www.bohemiancoding.com/sketch -->
    <title>Artboard</title>
    <desc>Created with Sketch.</desc>
    <defs></defs>
    <g id="Page-1" stroke="none" stroke-width="1" fill="none" fill-rule="evenodd">
        <g id="Artboard" fill-rule="nonzero" fill="#333333">
            <g id="blood-drop" transform="translate(10.000000, 2.000000)">
                <path d="M24.916,1.168 C24.394,0.436 23.546,0 22.646,0 C21.744,0 20.898,0.434 20.372,1.168 C14.756,9.006 0.686,29.622 0.686,39.332 C0.686,51.46 10.516,61.292 22.644,61.292 C34.774,61.292 44.606,51.46 44.606,39.332 C44.608,29.622 30.532,9.006 24.916,1.168 Z M14.934,51.762 C14.334,52.476 13.47,52.846 12.6,52.846 C11.91,52.846 11.21,52.61 10.638,52.13 C1.98,44.838 4.968,34.068 5.1,33.61 C5.568,31.992 7.246,31.064 8.872,31.526 C10.488,31.988 11.42,33.676 10.962,35.288 C10.868,35.638 8.998,42.774 14.57,47.466 C15.854,48.55 16.02,50.472 14.934,51.762 Z M20.928,57.82 C19.142,57.82 17.688,56.366 17.688,54.58 C17.688,52.788 19.142,51.338 20.928,51.338 C22.72,51.338 24.168,52.79 24.168,54.58 C24.168,56.37 22.718,57.82 20.928,57.82 Z" id="Shape"></path>
            </g>
        </g>
    </g>
</svg>